<svg width="16" height="16" viewBox="0 0 16 16" fill="none" xmlns="http://www.w3.org/2000/svg">
<path d="M3.10023 3.96765C2.86076 3.72818 2.86075 3.33993 3.10022 3.10045C3.33968 2.86098 3.72794 2.86097 3.96741 3.10044L12.8997 12.0324C13.1392 12.2719 13.1392 12.6601 12.8997 12.8996C12.6602 13.1391 12.272 13.1391 12.0325 12.8996L3.10023 3.96765Z" fill="#545454" stroke="#545454" stroke-width="0.5"/>
<path d="M3.10048 12.8997C2.861 12.6602 2.861 12.2719 3.10046 12.0325L12.0324 3.10018C12.2719 2.86071 12.6601 2.8607 12.8996 3.10017C13.1391 3.33964 13.1391 3.72789 12.8996 3.96737L3.96767 12.8996C3.72821 13.1391 3.33995 13.1391 3.10048 12.8997Z" fill="#545454" stroke="#545454" stroke-width="0.5"/>
</svg>
